<?xml version="1.0" encoding="UTF-8"?>
<!DOCTYPE svg PUBLIC "-//W3C//DTD SVG 1.1//EN" "http://www.w3.org/Graphics/SVG/1.1/DTD/svg11.dtd">
<!-- Creator: CorelDRAW 2020 (64 Bit) -->
<svg xmlns="http://www.w3.org/2000/svg" xml:space="preserve" width="1250px" height="1250px" version="1.1" style="shape-rendering:geometricPrecision; text-rendering:geometricPrecision; image-rendering:optimizeQuality; fill-rule:evenodd; clip-rule:evenodd"
viewBox="0 0 125000 125000"
 xmlns:xlink="http://www.w3.org/1999/xlink"
 xmlns:xodm="http://www.corel.com/coreldraw/odm/2003">
 <defs>
  <style type="text/css">
   <![CDATA[
    .fil1 {fill:#61BEB4;fill-rule:nonzero}
    .fil0 {fill:#6B7A7F;fill-rule:nonzero}
   ]]>
  </style>
 </defs>
 <g id="Camada_x0020_1">
  <metadata id="CorelCorpID_0Corel-Layer"/>
  <g id="_2328581764880">
   <path class="fil0" d="M114568 80523l-3128 -7450 -13766 0 -3053 7450 -7933 0 13901 -34364 7933 0 13978 34364 -7932 0zm-14477 -13737l8931 0 -4427 -11484 -4504 11484z"/>
   <polygon class="fil0" points="75351,46321 82661,46321 82661,80523 75351,80523 "/>
   <polygon class="fil0" points="55699,74568 71324,74568 71324,80523 47958,80523 47958,46228 55699,46228 "/>
   <path class="fil0" d="M34614 43782l7473 0 -7473 6126 0 -6126zm7473 2875l0 33866 -7473 0 0 -27686 7473 -6180z"/>
   <path class="fil0" d="M23587 61724c5191,2681 5749,6463 5762,8165 33,3988 -1187,7346 -5431,9561 -1425,744 -3384,1073 -5809,1073l-15609 0 0 -34311 15399 0c3679,0 5392,837 7349,2502 1511,1285 2628,4053 2483,6529 -145,2477 -1360,4371 -4144,6481zm-5972 12842c2496,0 4483,-2324 4358,-4468 -126,-2143 -1553,-4266 -4772,-4266l-7354 0 0 8734 7768 0zm-7768 -22331l0 7431 7078 0c2653,0 3392,-2961 3362,-4161 -30,-1200 -1323,-3270 -3429,-3270l-7011 0z"/>
   <path class="fil0" d="M64986 5219c2930,0 5591,476 7982,1430 2390,953 4433,2243 6130,3866 1697,1623 3008,3479 3933,5569 925,2089 1388,4250 1388,6482 0,2475 -411,4849 -1234,7122 -822,2272 -2043,4270 -3662,5995 -1619,1725 -3638,3094 -6054,4109 -2416,1014 -5244,1521 -8483,1521 -3239,0 -6066,-517 -8482,-1552 -2417,-1035 -4435,-2425 -6054,-4169 -1619,-1745 -2827,-3743 -3624,-5996 -797,-2253 -1195,-4575 -1195,-6969 0,-2151 450,-4261 1349,-6331 900,-2069 2172,-3915 3817,-5538 1646,-1623 3663,-2942 6054,-3957 2391,-1014 5103,-1541 8135,-1582zm-19 29871c1979,16 3713,-353 5185,-1058 1473,-706 2683,-1636 3622,-2785 941,-1149 1643,-2485 2097,-3995 453,-1509 687,-2869 687,-4523 0,-1411 -259,-2798 -763,-4145 -504,-1348 -1296,-2518 -2286,-3566 -990,-1048 -2167,-1925 -3586,-2547 -1419,-622 -3075,-937 -4956,-937 -1881,0 -3535,334 -4957,998 -1422,665 -2589,1590 -3550,2654 -961,1066 -1738,2217 -2246,3549 -508,1332 -762,2455 -762,3828 0,1532 191,3036 571,4508 381,1472 1008,2795 1870,3964 862,1168 2034,2131 3506,2876 1474,745 3333,1160 5568,1179z"/>
   <polygon class="fil0" points="42087,6065 42087,40531 34519,40531 34519,15297 22473,25373 10439,15332 10439,40531 2500,40531 2500,6065 10439,6065 22445,16303 34519,6065 "/>
   <g>
    <g>
     <g>
      <path class="fil1" d="M67457 88508l-561 0 0 0 -4 -143 -11 -141 -19 -138 -26 -137 -32 -134 -40 -131 -46 -129 -52 -126 -59 -123 -64 -119 -71 -116 -76 -113 -81 -109 -87 -104 -92 -101 -97 -96 -102 -92 -106 -87 -111 -83 -114 -77 -119 -72 -123 -67 -126 -61 -129 -56 -133 -49 -136 -44 -139 -37 -141 -31 -144 -24 -147 -18 -148 -11 -151 -3 0 -532 179 4 177 13 175 21 171 29 169 37 166 44 162 52 158 59 155 67 150 73 146 79 142 86 137 92 131 98 127 104 121 110 115 114 110 120 103 125 97 130 91 133 84 139 77 142 70 147 63 150 54 154 47 156 39 160 31 163 22 165 14 168 4 170 0 0zm-3487 3304l0 -532 0 0 151 -3 148 -11 147 -17 144 -25 141 -31 139 -37 136 -44 133 -49 129 -56 126 -61 123 -67 119 -72 114 -77 111 -83 106 -87 102 -92 97 -96 92 -101 87 -104 81 -109 76 -113 71 -116 64 -119 59 -123 52 -126 46 -129 40 -131 32 -134 26 -136 19 -139 11 -141 4 -143 561 0 -4 170 -14 168 -22 165 -31 163 -39 160 -47 156 -54 154 -63 150 -70 147 -77 142 -84 139 -91 134 -97 129 -103 125 -110 120 -115 114 -121 110 -127 104 -131 98 -137 92 -142 86 -146 79 -150 73 -155 67 -158 59 -162 52 -166 44 -169 37 -171 29 -175 21 -177 13 -179 4 0 0zm-3487 -3304l561 0 0 0 4 143 11 141 19 139 25 136 33 134 39 131 46 129 53 126 58 123 65 119 70 116 76 113 82 109 87 104 92 101 97 96 102 92 106 87 110 83 115 77 119 72 122 67 126 61 130 56 133 49 136 44 138 37 142 31 144 25 146 17 149 11 151 3 0 532 -179 -4 -177 -13 -175 -21 -172 -29 -168 -37 -166 -44 -162 -52 -159 -59 -154 -67 -151 -73 -146 -79 -141 -86 -137 -92 -131 -98 -127 -104 -121 -110 -115 -114 -110 -120 -103 -125 -98 -129 -90 -134 -84 -139 -77 -142 -70 -147 -63 -150 -55 -154 -47 -156 -39 -160 -30 -163 -22 -165 -14 -168 -4 -170 0 0zm3487 -3304l0 532 0 0 -151 3 -149 11 -146 18 -144 24 -142 31 -138 37 -136 44 -133 49 -130 56 -126 61 -122 67 -119 72 -115 77 -110 83 -106 87 -102 92 -97 96 -92 101 -87 104 -82 109 -76 113 -70 116 -65 119 -58 123 -53 126 -46 129 -39 131 -33 134 -25 137 -19 138 -11 141 -4 143 -561 0 4 -170 14 -168 22 -165 30 -163 39 -160 47 -156 55 -154 63 -150 70 -147 77 -142 84 -139 90 -133 98 -130 103 -125 110 -120 115 -114 121 -110 127 -104 131 -98 137 -92 141 -86 146 -79 151 -73 154 -67 159 -59 162 -52 166 -44 168 -37 172 -29 175 -21 177 -13 179 -4 0 0z"/>
     </g>
     <path class="fil1" d="M62710 90066l0 -3114 1398 0c351,0 607,28 766,84 160,56 287,155 382,298 96,143 144,306 144,491 0,234 -72,427 -216,579 -145,152 -361,248 -648,288 143,79 261,166 353,261 94,95 219,264 377,506l401 607 -794 0 -476 -680c-170,-241 -288,-393 -351,-456 -63,-63 -129,-106 -200,-129 -71,-24 -183,-35 -336,-35l-134 0 0 1300 -666 0zm666 -1796l491 0c318,0 516,-13 596,-39 79,-25 142,-69 186,-132 45,-62 67,-140 67,-234 0,-105 -30,-189 -88,-254 -59,-65 -143,-105 -250,-122 -54,-7 -216,-11 -484,-11l-518 0 0 792z"/>
    </g>
    <path class="fil1" d="M20100 106172c-1464,630 -3184,1533 -4557,2191 -1751,837 -5159,3409 -5102,5387l19320 0 0 6031 -27195 0 0 -3438c0,-4176 701,-7036 4248,-9681 2770,-2065 5849,-3367 9038,-4834 2504,-1151 5308,-2952 5772,-5688 634,-3745 -3593,-5671 -7290,-5412 -3772,265 -7095,2739 -9160,5413l-2674 -6245c1522,-1671 4496,-3502 7069,-4430 3771,-1362 9243,-1355 12985,31 3088,1142 5203,3323 6377,6402 1166,3053 720,5888 -962,8319 -1760,2545 -4867,4659 -7869,5954z"/>
    <path class="fil1" d="M50383 106172c-1464,630 -3184,1533 -4557,2191 -1750,837 -5158,3409 -5102,5387l19321 0 0 6031 -27196 0 0 -3438c0,-4176 701,-7036 4248,-9681 2771,-2065 5849,-3367 9039,-4834 2504,-1151 5307,-2952 5771,-5688 635,-3745 -3593,-5671 -7289,-5412 -3772,265 -7095,2739 -9160,5413l-2675 -6245c1522,-1671 4497,-3502 7070,-4430 3770,-1362 9242,-1355 12985,31 3087,1142 5202,3323 6376,6402 1167,3053 721,5888 -961,8319 -1761,2545 -4867,4659 -7870,5954z"/>
   </g>
  </g>
 </g>
</svg>
